<?xml version="1.0" standalone="no"?><!DOCTYPE svg PUBLIC "-//W3C//DTD SVG 1.1//EN" "http://www.w3.org/Graphics/SVG/1.1/DTD/svg11.dtd"><svg t="1533283133561" class="icon" style="" viewBox="0 0 1024 1024" version="1.1" xmlns="http://www.w3.org/2000/svg" p-id="13307" xmlns:xlink="http://www.w3.org/1999/xlink" width="32" height="32"><defs><style type="text/css"></style></defs><path d="M512 1024C229.003636 1024 0 794.996364 0 512S229.003636 0 512 0 1024 229.003636 1024 512 794.996364 1024 512 1024z m0-1005.381818C240.174545 18.618182 18.618182 240.174545 18.618182 512S240.174545 1005.381818 512 1005.381818 1005.381818 783.825455 1005.381818 512 783.825455 18.618182 512 18.618182z" p-id="13308" fill="#2c2c2c"></path><path d="M763.345455 476.625455h-39.098182c-11.170909 0-18.618182 9.309091-18.618182 18.618181v76.334546c0 11.170909 9.309091 18.618182 18.618182 18.618182H763.345455c11.170909 0 18.618182-9.309091 18.618181-18.618182v-76.334546c0-9.309091-9.309091-18.618182-18.618181-18.618181zM415.185455 420.770909h39.098181c11.170909 0 18.618182-9.309091 18.618182-18.618182v-76.334545c0-11.170909-9.309091-18.618182-18.618182-18.618182h-39.098181c-11.170909 0-18.618182 9.309091-18.618182 18.618182v76.334545c0 9.309091 9.309091 18.618182 18.618182 18.618182zM415.185455 592.058182h39.098181c11.170909 0 18.618182-9.309091 18.618182-18.618182v-76.334545c0-11.170909-9.309091-18.618182-18.618182-18.618182h-39.098181c-11.170909 0-18.618182 9.309091-18.618182 18.618182v76.334545c0 11.170909 9.309091 18.618182 18.618182 18.618182zM569.716364 420.770909h39.098181c11.170909 0 18.618182-9.309091 18.618182-18.618182v-76.334545c0-11.170909-9.309091-18.618182-18.618182-18.618182h-39.098181c-11.170909 0-18.618182 9.309091-18.618182 18.618182v76.334545c0 9.309091 7.447273 18.618182 18.618182 18.618182zM569.716364 592.058182h39.098181c11.170909 0 18.618182-9.309091 18.618182-18.618182v-76.334545c0-11.170909-9.309091-18.618182-18.618182-18.618182h-39.098181c-11.170909 0-18.618182 9.309091-18.618182 18.618182v76.334545c0 11.170909 7.447273 18.618182 18.618182 18.618182zM262.516364 420.770909h39.098181c11.170909 0 18.618182-9.309091 18.618182-18.618182v-76.334545c0-11.170909-9.309091-18.618182-18.618182-18.618182h-39.098181c-11.170909 0-18.618182 9.309091-18.618182 18.618182v76.334545c-1.861818 9.309091 7.447273 18.618182 18.618182 18.618182zM761.483636 305.338182h-39.098181c-11.170909 0-18.618182 9.309091-18.618182 18.618182v76.334545c0 11.170909 9.309091 18.618182 18.618182 18.618182h39.098181c11.170909 0 18.618182-9.309091 18.618182-18.618182v-76.334545c1.861818-11.170909-7.447273-18.618182-18.618182-18.618182zM320.232727 573.44v-76.334545c0-11.170909-9.309091-18.618182-18.618182-18.618182h-39.098181c-11.170909 0-18.618182 9.309091-18.618182 18.618182v76.334545c0 11.170909 9.309091 18.618182 18.618182 18.618182h39.098181c9.309091 0 18.618182-7.447273 18.618182-18.618182zM724.247273 670.254545H299.752727c-11.170909 0-18.618182 9.309091-18.618182 18.618182v18.618182c0 11.170909 9.309091 18.618182 18.618182 18.618182h422.632728c11.170909 0 18.618182-9.309091 18.618181-18.618182v-18.618182c1.861818-11.170909-7.447273-18.618182-16.756363-18.618182z" p-id="13309" fill="#2c2c2c"></path></svg>