<?xml version="1.0" standalone="no"?><!DOCTYPE svg PUBLIC "-//W3C//DTD SVG 1.1//EN" "http://www.w3.org/Graphics/SVG/1.1/DTD/svg11.dtd"><svg t="1533515478515" class="icon" style="" viewBox="0 0 1024 1024" version="1.1" xmlns="http://www.w3.org/2000/svg" p-id="3724" xmlns:xlink="http://www.w3.org/1999/xlink" width="32" height="32"><defs><style type="text/css"></style></defs><path d="M126.441739 0h234.406957l32.278261 48.306087c-73.683478 84.146087-202.573913 0.890435-288.50087 56.097391C46.747826 189.217391 132.897391 320.556522 47.415652 392.681739 35.394783 384.667826 11.798261 368.64 0 360.626087V131.33913C11.353043 65.446957 62.553043 15.582609 126.441739 0zM662.706087 0h230.177391c65.669565 11.353043 115.756522 62.330435 131.116522 126.664348V360.626087l-47.193043 32.055652c-86.149565-72.125217 1.113043-204.132174-57.878261-288.723478-85.926957-54.093913-214.149565 28.048696-287.610435-55.206957 7.791304-12.243478 23.596522-36.507826 31.387826-48.751304zM250.657391 477.050435c174.747826-18.253913 353.502609-4.006957 529.808696-7.346087 54.316522-12.688696 73.015652 77.690435 17.14087 82.587826-169.627826 6.233043-339.923478 1.78087-509.773914 2.226087-44.076522 7.568696-73.683478-48.083478-37.175652-77.467826zM0 663.596522l47.193043-32.055652c85.481739 71.457391 0.222609 202.351304 56.765218 287.387826 85.481739 58.991304 215.04-26.267826 288.946087 56.987826-7.791304 12.02087-23.373913 36.062609-31.387826 48.083478H130.893913C65.669565 1011.97913 16.027826 962.114783 0 898.226087V663.596522zM920.264348 918.706087c56.097391-85.036522-28.716522-215.262609 56.32-286.942609 11.798261 7.791304 35.617391 23.373913 47.415652 31.165218v229.954782c-11.353043 66.114783-62.775652 115.756522-127.109565 131.116522H662.706087c-8.013913-12.02087-23.81913-36.062609-31.833044-48.083478 74.128696-83.255652 203.909565 2.003478 289.391305-57.210435z" fill="#FFFFFF" p-id="3725"></path></svg>