<?xml version="1.0" standalone="no"?><!DOCTYPE svg PUBLIC "-//W3C//DTD SVG 1.1//EN" "http://www.w3.org/Graphics/SVG/1.1/DTD/svg11.dtd"><svg t="1533282971729" class="icon" style="" viewBox="0 0 1024 1024" version="1.1" xmlns="http://www.w3.org/2000/svg" p-id="10087" xmlns:xlink="http://www.w3.org/1999/xlink" width="32" height="32"><defs><style type="text/css"></style></defs><path d="M512.000512 64.094784c-247.37097 0-447.90624 200.536292-447.90624 447.905216 0 247.369947 200.535269 447.905216 447.90624 447.905216 247.368924 0 447.904193-200.535269 447.904193-447.905216C959.904705 264.631076 759.370459 64.094784 512.000512 64.094784zM516.974803 758.344594c-37.362956 0-67.661006-30.166043-67.661006-67.393923 0-37.229926 30.29805-67.39597 67.661006-67.39597 37.361933 0 67.623144 30.166043 67.623144 67.39597C584.597947 728.178551 554.335712 758.344594 516.974803 758.344594zM684.209642 618.029872c-90.840938-90.51962-238.656495-90.51962-329.480037 0l-53.15564-52.948933c120.133078-119.716592 315.637774-119.716592 435.772898 0L684.209642 618.029872zM779.874445 507.72872C710.314183 438.434517 617.840048 400.255986 519.479857 400.255986c-98.378611 0-190.852746 38.179554-260.411985 107.472733l-53.138244-52.947909c83.760682-83.437317 195.087187-129.400139 313.550229-129.400139 118.426203 0 229.79057 45.962821 313.51339 129.400139L779.874445 507.72872z" p-id="10088" fill="#2c2c2c"></path></svg>