<?xml version="1.0" standalone="no"?><!DOCTYPE svg PUBLIC "-//W3C//DTD SVG 1.1//EN" "http://www.w3.org/Graphics/SVG/1.1/DTD/svg11.dtd"><svg t="1533515589503" class="icon" style="" viewBox="0 0 1308 1024" version="1.1" xmlns="http://www.w3.org/2000/svg" p-id="6634" xmlns:xlink="http://www.w3.org/1999/xlink" width="40.875" height="32"><defs><style type="text/css"></style></defs><path d="M1290.690804 327.710896c0 0-238.462868 167.893026-548.619077 387.186176-100.974559 61.230748-191.907838-5.125969-191.907838-5.125969l-533.170952-381.989988C7.583625 327.710896 0 335.36474 0 344.703833l0 560.415827c0 65.724748 53.225811 118.810121 118.88034 118.810121L1188.803401 1023.929781c65.654529 0 118.810121-53.155592 118.810121-118.810121L1307.613523 344.703833C1307.683741 335.36474 1300.029898 327.710896 1290.690804 327.710896L1290.690804 327.710896zM565.892889 619.750669c62.705342 39.111843 81.945279 32.651718 83.911404 31.738874 4.774875 1.404375 25.77028 3.651375 83.138997-32.019749 151.95337-94.79531 515.405609-334.522115 554.447233-437.884112 0 0 62.986217-190.152369-127.166152-181.234588 0 0-257.843242-0.140437-510.981828-0.210656l0 0.140437C396.45505 0.280875 138.962902 0.421312 138.962902 0.421312c-189.941713-8.917781-127.025715 181.304807-127.025715 181.304807C50.978811 285.088116 414.079956 524.955359 565.892889 619.750669L565.892889 619.750669zM565.892889 619.750669" p-id="6635" fill="#ffffff"></path></svg>