<?xml version="1.0" standalone="no"?><!DOCTYPE svg PUBLIC "-//W3C//DTD SVG 1.1//EN" "http://www.w3.org/Graphics/SVG/1.1/DTD/svg11.dtd"><svg t="1533438705837" class="icon" style="" viewBox="0 0 1024 1024" version="1.1" xmlns="http://www.w3.org/2000/svg" p-id="3020" xmlns:xlink="http://www.w3.org/1999/xlink" width="32" height="32"><defs><style type="text/css"></style></defs><path d="M512 1024c-68.266667 0-136.533333-13.128205-199.548718-39.384615-60.389744-26.25641-115.528205-63.015385-162.789744-110.276923-47.261538-47.261538-84.020513-102.4-110.276923-162.789744-26.25641-63.015385-39.384615-131.282051-39.384615-199.548718 0-68.266667 13.128205-136.533333 39.384615-199.548718 26.25641-60.389744 63.015385-115.528205 110.276923-162.789744 47.261538-47.261538 102.4-84.020513 162.789744-110.276923 63.015385-26.25641 131.282051-39.384615 199.548718-39.384615 68.266667 0 136.533333 13.128205 199.548718 39.384615 60.389744 26.25641 115.528205 63.015385 162.789744 110.276923 47.261538 47.261538 84.020513 102.4 110.276923 162.789744 26.25641 63.015385 39.384615 131.282051 39.384615 199.548718 0 68.266667-13.128205 136.533333-39.384615 199.548718-26.25641 60.389744-63.015385 115.528205-110.276923 162.789744-47.261538 47.261538-102.4 84.020513-162.789744 110.276923-63.015385 26.25641-131.282051 39.384615-199.548718 39.384615z m0-989.866667C246.810256 34.133333 34.133333 246.810256 34.133333 512s215.302564 477.866667 477.866667 477.866667c265.189744 0 477.866667-215.302564 477.866667-477.866667 0-265.189744-212.676923-477.866667-477.866667-477.866667z m0 0" fill="#000000" p-id="3021"></path><path d="M301.948718 517.251282c0-13.128205 5.251282-26.25641 13.128205-39.384615 7.876923-7.876923 21.005128-13.128205 36.758974-13.128205 13.128205 0 26.25641 5.251282 39.384616 13.128205 7.876923 13.128205 13.128205 26.25641 13.128205 39.384615s-5.251282 31.507692-13.128205 39.384615c-13.128205 7.876923-26.25641 13.128205-39.384616 13.128206s-26.25641-5.251282-36.758974-13.128206c-7.876923-7.876923-13.128205-26.25641-13.128205-39.384615z m420.102564 7.876923v-31.507692c-5.251282-102.4-52.512821-199.548718-126.030769-262.564103h-21.005128c-18.379487 0-36.758974 13.128205-36.758975 36.758975 0 13.128205 26.25641 31.507692 36.758975 36.758974 49.887179 52.512821 81.394872 126.030769 81.394871 199.548718 0 89.271795-36.758974 165.415385-94.523077 217.928205-13.128205 5.251282-21.005128 18.379487-21.005128 36.758974s18.379487 36.758974 36.758975 36.758975c13.128205 0 21.005128-5.251282 21.005128-5.251282 68.266667-65.641026 118.153846-157.538462 123.405128-265.189744z m-246.810256-178.54359s-7.876923-7.876923-21.005129-7.876923-26.25641 13.128205-26.25641 31.507693 13.128205 26.25641 18.379487 31.507692c36.758974 21.005128 63.015385 65.641026 63.015385 115.528205 0 49.887179-26.25641 94.523077-63.015385 115.528205-5.251282 5.251282-18.379487 7.876923-18.379487 31.507692 0 18.379487 13.128205 31.507692 26.25641 31.507693s21.005128-7.876923 21.005129-7.876923c52.512821-36.758974 84.020513-97.148718 84.020512-168.041026 2.625641-73.517949-28.882051-136.533333-84.020512-173.292308z m0 0" fill="#000000" p-id="3022"></path></svg>