<?xml version="1.0" standalone="no"?><!DOCTYPE svg PUBLIC "-//W3C//DTD SVG 1.1//EN" "http://www.w3.org/Graphics/SVG/1.1/DTD/svg11.dtd"><svg t="1533294409520" class="icon" style="" viewBox="0 0 1024 1024" version="1.1" xmlns="http://www.w3.org/2000/svg" p-id="2940" xmlns:xlink="http://www.w3.org/1999/xlink" width="32" height="32"><defs><style type="text/css"></style></defs><path d="M812.679424 59.205427 208.932079 59.205427c-83.363045 0-150.939906 67.578118-150.939906 150.935618l0 603.724051c0 83.3575 67.576861 150.929478 150.939906 150.929478l603.747345 0c83.363045 0 150.939906-67.571978 150.939906-150.929478L963.61933 210.141044C963.61933 126.783545 896.042469 59.205427 812.679424 59.205427zM780.10008 569.667398l-215.466164 0-0.002047 196.173938c0 30.420847-24.658621 55.095829-55.086885 55.095829-30.428264-0.01228-55.092001-24.674982-55.086885-55.095829L454.458101 569.667398 238.979657 569.667398c-31.840485 0-57.666748-25.825179-57.666748-57.667398-0.005117-31.854499 25.816029-57.673537 57.672888-57.673537l215.473327 0.005117L454.459124 255.727289c-0.005117-30.420847 24.658621-55.089689 55.086885-55.084573 30.428264 0 55.080745 24.657586 55.092001 55.084573l-0.002047 198.605314 215.46514 0.005117c31.845602-0.01228 57.661631 25.807782 57.666748 57.662281C837.767852 543.842219 811.956939 569.667398 780.10008 569.667398z" p-id="2941" fill="#2c2c2c"></path></svg>