<?xml version="1.0" standalone="no"?><!DOCTYPE svg PUBLIC "-//W3C//DTD SVG 1.1//EN" "http://www.w3.org/Graphics/SVG/1.1/DTD/svg11.dtd"><svg t="1533264030547" class="icon" style="" viewBox="0 0 1024 1024" version="1.1" xmlns="http://www.w3.org/2000/svg" p-id="1340" xmlns:xlink="http://www.w3.org/1999/xlink" width="32" height="32"><defs><style type="text/css"></style></defs><path d="M883.961058 91.813079l-730.72556 0c-32.04074 0-58.013275 25.973558-58.013275 58.014298l0 730.72556c0 32.04074 25.973558 58.014298 58.013275 58.014298l730.72556 0c32.041764 0 58.014298-25.974581 58.014298-58.014298L941.975357 149.827377C941.97638 117.78766 916.002822 91.813079 883.961058 91.813079zM518.600837 785.502118c-42.527582 0-83.130326-7.248078-120.391974-20.287045-23.699772 15.755846-63.48694 41.652655-79.102592 48.841382-22.927175 10.596336-16.328897-12.226462-16.328897-12.226462l13.57825-78.233805c-75.201749-52.386114-123.502825-133.26312-123.502825-224.092801 0-157.947312 145.82932-285.987476 325.730643-285.987476 110.24794 0 207.595059 48.115857 266.568195 121.691573l-319.489498 147.920958c0 0-26.038026 9.853415-48.858778-4.064572-22.835078-13.921058-52.964282-36.779671-52.964282-36.779671s-35.075867-29.840632-16.249079 24.52251l48.877197 114.379027c0 0 5.771447 34.088376 44.738947 12.274558 30.521131-17.042141 267.287579-159.826102 369.087103-221.264383 21.756513 38.349423 34.054607 81.540108 34.054607 127.305431C844.346829 657.466046 698.505229 785.502118 518.600837 785.502118z" p-id="1341" fill="#2aa515"></path></svg>