<?xml version="1.0" standalone="no"?><!DOCTYPE svg PUBLIC "-//W3C//DTD SVG 1.1//EN" "http://www.w3.org/Graphics/SVG/1.1/DTD/svg11.dtd"><svg t="1533221387385" class="icon" style="" viewBox="0 0 1024 1024" version="1.1" xmlns="http://www.w3.org/2000/svg" p-id="2234" xmlns:xlink="http://www.w3.org/1999/xlink" width="18" height="18"><defs><style type="text/css"></style></defs><path d="M960.512 375.808c0-153.6-149.504-281.6-332.8-281.6-136.192 0-256 68.608-307.2 171.008 17.408 0 33.792-4.096 51.2-4.096 51.2-72.704 145.408-123.904 256-123.904 161.792 0 289.792 106.496 289.792 238.592 0 63.488-29.696 123.904-84.992 171.008-13.312 8.192-17.408 29.696-13.312 43.008l17.408 59.392L750.592 614.4c0 13.312-4.096 29.696-8.192 43.008L900.096 716.8l-38.912-141.312C921.6 529.408 960.512 456.704 960.512 375.808zM375.808 303.104c-183.296 0-332.8 128-332.8 281.6 0 80.896 37.888 153.6 102.4 204.8l-38.912 141.312 187.392-72.704c25.6 4.096 55.296 8.192 84.992 8.192 183.296 0 332.8-123.904 332.8-281.6C712.704 431.104 563.2 303.104 375.808 303.104zM375.808 823.296c-25.6 0-51.2-4.096-76.8-8.192-4.096 0-4.096 0-8.192 0-4.096 0-8.192 0-17.408 4.096l-110.592 43.008 17.408-59.392c4.096-17.408 0-33.792-13.312-43.008-55.296-47.104-84.992-106.496-84.992-171.008 0-132.096 132.096-238.592 289.792-238.592s289.792 106.496 289.792 238.592C669.696 716.8 537.6 823.296 375.808 823.296z" p-id="2235"></path></svg>