<?xml version="1.0" standalone="no"?><!DOCTYPE svg PUBLIC "-//W3C//DTD SVG 1.1//EN" "http://www.w3.org/Graphics/SVG/1.1/DTD/svg11.dtd"><svg t="1533263390897" class="icon" style="" viewBox="0 0 1024 1024" version="1.1" xmlns="http://www.w3.org/2000/svg" p-id="14619" xmlns:xlink="http://www.w3.org/1999/xlink" width="32" height="32"><defs><style type="text/css"></style></defs><path d="M16.63 208.52S-6.78 42.82 231.41 38.31s263 203.52 263 203.52h200.33a60.79 60.79 0 0 1 45 65.74c0 56.28-39.17 54.48-39.17 54.48H232.76a58.09 58.09 0 0 0-58.11 58.06v1.83c0 65.74 10.81 163.9-67.54 163.9-53.13 0-54.93-63.94-54.93-63.94z m990.6 607s25.22 165.7-213 170.2-264.74-203.56-264.74-203.56H329.12a60.79 60.79 0 0 1-45-65.74c0-56.28 39.17-54.48 39.17-54.48H791.1a58.09 58.09 0 0 0 58.11-58.06v-1.83c0-65.74-10.81-163.9 67.54-163.9 53.13 0 54.93 63.94 54.93 63.94z" fill="#159CA5" p-id="14620"></path></svg>