<?xml version="1.0" standalone="no"?><!DOCTYPE svg PUBLIC "-//W3C//DTD SVG 1.1//EN" "http://www.w3.org/Graphics/SVG/1.1/DTD/svg11.dtd"><svg t="1533283103389" class="icon" style="" viewBox="0 0 1024 1024" version="1.1" xmlns="http://www.w3.org/2000/svg" p-id="12479" xmlns:xlink="http://www.w3.org/1999/xlink" width="32" height="32"><defs><style type="text/css"></style></defs><path d="M920.661424 332.324828c-22.420639-53.007261-54.514591-100.610442-95.391581-141.486408-40.875966-40.876989-88.48017-72.970942-141.487432-95.391581-54.884005-23.214724-113.180735-34.984792-173.267229-34.984792-60.087517 0-118.383224 11.770068-173.268252 34.984792-53.007261 22.420639-100.610442 54.513568-141.487432 95.390557s-72.970942 88.48017-95.390557 141.487432c-23.214724 54.885028-34.984792 113.180735-34.984792 173.268252s11.770068 118.383224 34.984792 173.268252c22.420639 53.007261 54.513568 100.610442 95.390557 141.487432s88.48017 72.970942 141.487432 95.391581c54.884005 23.213701 113.180735 34.984792 173.268252 34.984792 60.087517 0 118.384247-11.771091 173.267229-34.984792 53.007261-22.419616 100.610442-54.513568 141.487432-95.390557s72.970942-88.48017 95.391581-141.487432c23.213701-54.885028 34.984792-113.180735 34.984792-173.268252S943.874101 387.208832 920.661424 332.324828zM510.515183 930.257989c-234.161111 0-424.664909-190.503798-424.664909-424.664909S276.354072 80.928171 510.515183 80.928171c234.160087 0 424.663886 190.503798 424.663886 424.664909S744.67527 930.257989 510.515183 930.257989z" p-id="12480" fill="#2c2c2c"></path><path d="M603.221608 236.123812l-0.457418-0.450255-33.555234 34.461883-23.87578 23.874757c28.247344 28.247344 50.110281 61.168128 64.984037 97.846492 14.371312 35.441187 21.658276 72.897264 21.659299 111.327528 0 38.429241-7.286963 75.884294-21.659299 111.326505-14.873756 36.680411-36.737716 69.601194-64.983014 97.846492-1.407046 1.407046-2.830465 2.792603-4.260024 4.167926l56.765865 58.988486c2.010797-1.936095 3.771907-3.65832 5.382591-5.269004 36.033681-36.035728 63.945381-78.081333 82.959434-124.969223 18.35402-45.25981 27.658943-93.066629 27.658943-142.091182-0.001023-49.025577-9.30697-96.830349-27.658943-142.090159C667.168012 314.206168 639.256312 272.160563 603.221608 236.123812z" p-id="12481" fill="#2c2c2c"></path><path d="M534.421662 407.122371c-12.860912-31.716352-31.732725-60.146868-56.090483-84.504626-0.200568-0.200568-0.403183-0.399089-0.608867-0.597611l-28.470425 29.407774-23.971971 24.241101-4.835122 4.835122c0.00921 0.00921 0.01842 0.01842 0.025583 0.028653l0.150426 0.148379c16.482393 16.528442 29.245068 35.772738 37.936007 57.204863 8.428973 20.785396 12.7023 42.753733 12.7023 65.297169 0 22.542412-4.273327 44.511773-12.703323 65.298192-8.720615 21.50785-21.543665 40.813544-38.117133 57.384965-1.134847 1.13587-2.387373 2.344395-3.939729 3.804652l56.073086 59.645448c2.15406-2.025123 4.03899-3.847631 5.757121-5.566786 24.357757-24.356734 43.22957-52.788274 56.090483-84.504626 12.410658-30.604018 18.702967-62.923098 18.702967-96.060823C553.123606 470.045469 546.831296 437.72639 534.421662 407.122371z" p-id="12482" fill="#2c2c2c"></path><path d="M361.594455 436.594613l-20.396539 20.396539-6.473435 6.472412-41.862433 41.863457 42.131563 42.131563 6.486738 6.486738 20.383236 20.382213c18.308995-18.379603 28.393677-42.780339 28.393677-68.732407 0-26.015513-10.131755-50.473555-28.526707-68.868507C361.685529 436.682617 361.63948 436.639638 361.594455 436.594613z" p-id="12483" fill="#2c2c2c"></path></svg>