<?xml version="1.0" standalone="no"?><!DOCTYPE svg PUBLIC "-//W3C//DTD SVG 1.1//EN" "http://www.w3.org/Graphics/SVG/1.1/DTD/svg11.dtd"><svg t="1533263445951" class="icon" style="" viewBox="0 0 1039 1024" version="1.1" xmlns="http://www.w3.org/2000/svg" p-id="15965" xmlns:xlink="http://www.w3.org/1999/xlink" width="32.46875" height="32"><defs><style type="text/css"></style></defs><path d="M875.97114 387.394487z" fill="#d81e06" p-id="15966"></path><path d="M415.76768 385.725067c-37.283714-10.01652-36.170768-27.823668-30.606035-48.969654l39.509608-315.52039C430.235987 0.089036 478.649168-5.475698 515.932883 4.540823c37.283714 10.01652 76.793322 38.396661 71.785062 59.542648L466.406754 357.9014c-5.564734 21.145987-13.35536 37.283714-50.639074 27.823667zM312.263636 476.986697c-3.33884 38.396661-17.807147 40.622555-35.057821 38.953134L24.566914 535.972872C7.316241 534.303452-2.70028 487.55969 0.63856 449.163029c3.33884-38.396661 21.702461-82.358056 38.953135-80.688635l245.404747 63.994435c17.250674 1.66942 30.606034 6.121207 27.267194 44.517868zM343.426144 597.741414c36.170768 12.798887 33.388401 31.718981 25.597774 53.421441l-72.341535 328.87575c-7.790627 21.702461-56.760282 23.928354-93.487523 11.129467-36.170768-12.798887-72.898009-46.187288-65.107382-67.889748l151.917224-300.495609c7.234154-21.702461 17.250674-38.396661 53.421442-25.041301zM534.852976 588.281367c28.380141-26.154247 47.856708-10.01652 68.446223 12.242414l328.319276 298.269715c20.589514 22.258934 3.33884 71.785062-25.041301 97.382836-28.380141 26.154247-79.019216 38.396661-99.608729 16.137728l-265.994262-355.029998c-20.589514-22.258934-34.501348-42.848448-6.121207-69.002695zM549.321284 450.832449c-2.225893-38.396661 19.476567-43.404921 46.187288-45.074341l389.531345-66.776802c26.710721-1.66942 51.752022 42.291975 54.534388 81.245109 2.225893 38.396661-16.694201 85.696896-43.961395 87.366316L601.073305 489.785584c-27.267194 1.66942-49.526128-0.556473-51.752021-38.953135z" fill="#d81e06" p-id="15967"></path></svg>