<?xml version="1.0" standalone="no"?><!DOCTYPE svg PUBLIC "-//W3C//DTD SVG 1.1//EN" "http://www.w3.org/Graphics/SVG/1.1/DTD/svg11.dtd"><svg t="1533515564103" class="icon" style="" viewBox="0 0 1024 1024" version="1.1" xmlns="http://www.w3.org/2000/svg" p-id="5901" xmlns:xlink="http://www.w3.org/1999/xlink" width="32" height="32"><defs><style type="text/css"></style></defs><path d="M459.34527435 653.21637812l-141.08485101-134.15775163c-3.41970732-3.24433783-3.50739205-8.59311067-0.26305422-12.01281799l13.41577504-14.11725417c2.89359887-3.06896835 7.62857851-3.50739205 11.04828582-1.13990164L455.31177385 571.14340132c3.41970732 2.45517395 8.15468695 1.9290655 11.04828461-1.0522181l211.84648897-220.08886067c3.06896835-3.24433783 8.2423717-3.50739205 11.66207902-0.6137932l15.60789599 13.15272084c3.5950768 3.06896835 4.0335005 8.41774117 1.05221689 12.01281797L471.7088325 652.60258494c-3.15665309 3.68276154-8.85616489 4.0335005-12.36355815 0.61379318zM90.36761588 776.50121462V666.7198379H29.16362194v109.78137672c0 42.43944607 34.63549808 77.07494415 76.72420398 77.07494294h147.66121142v-61.20399394H105.88782592c-8.59311067 0-15.52021004-6.92709937-15.52021004-15.870949z m15.52021004-627.12172573c-42.00102115 0-76.72420398 34.28475911-76.72420398 76.72420396v109.78137673h61.20399394V226.10369285c0-8.59311067 6.92709937-15.52021004 15.52021004-15.52021002h147.66121142v-61.20399394H105.88782592z m827.7445582 627.12172573c0 8.94384962-6.92709937 15.87095021-15.52021004 15.870949h-147.66121142v61.20399394h147.66121142c42.00102115 0 76.72420398-34.63549808 76.72420398-77.07494294V666.7198379h-61.20399394v109.78137672z m-15.43252529-627.12172573h-147.66121143v61.20399394h147.66121143c8.59311067 0 15.52021004 6.92709937 15.52021124 15.52021002v109.78137673h61.20399272V226.10369285c-0.08768475-42.43944607-34.72318282-76.72420398-76.72420396-76.72420396z" fill="#ffffff" p-id="5902"></path></svg>