<?xml version="1.0" standalone="no"?><!DOCTYPE svg PUBLIC "-//W3C//DTD SVG 1.1//EN" "http://www.w3.org/Graphics/SVG/1.1/DTD/svg11.dtd"><svg t="1533515534497" class="icon" style="" viewBox="0 0 1024 1024" version="1.1" xmlns="http://www.w3.org/2000/svg" p-id="5675" xmlns:xlink="http://www.w3.org/1999/xlink" width="32" height="32"><defs><style type="text/css"></style></defs><path d="M512 102.4a409.6 409.6 0 1 0 0 819.2 409.6 409.6 0 0 0 0-819.2z m139.264 476.0576c23.296 0 39.4752 10.9056 39.4752 38.6048 0 21.2992-11.0592 35.5328-34.304 35.5328h-94.0032v55.6032c0 26.624-21.6576 46.336-50.688 46.336-29.1328 0-50.7904-19.6608-50.7904-46.336v-55.6032H369.664c-23.296 0-36.9664-17.7152-36.9664-39.0144 0-21.3504 13.6704-35.1232 36.9664-35.1232h91.2896v-46.336H369.664c-23.296 0-36.9664-16.4352-36.9664-37.7856s13.6704-36.352 36.9664-36.352h88.3712L365.568 373.3504a36.5568 36.5568 0 0 1 0-54.9376 45.2096 45.2096 0 0 1 60.0064 0L510.976 396.6976l85.8112-78.592a45.2096 45.2096 0 0 1 59.9552 0 36.5568 36.5568 0 0 1 0 54.9376L564.224 457.984h89.6c23.1936 0 36.9152 15.0528 36.9152 36.352 0 21.3504-13.7216 37.7856-36.9664 37.7856h-91.3408v46.336h88.832z" fill="#707070" p-id="5676"></path></svg>