<?xml version="1.0" standalone="no"?><!DOCTYPE svg PUBLIC "-//W3C//DTD SVG 1.1//EN" "http://www.w3.org/Graphics/SVG/1.1/DTD/svg11.dtd"><svg t="1533263730416" class="icon" style="" viewBox="0 0 1024 1024" version="1.1" xmlns="http://www.w3.org/2000/svg" p-id="25253" xmlns:xlink="http://www.w3.org/1999/xlink" width="32" height="32"><defs><style type="text/css"></style></defs><path d="M857.573053 80.842105 178.229895 80.842105C144.464842 80.842105 107.789474 112.693895 107.789474 146.944l0 813.056 404.938105-217.6L916.210526 960 916.210526 146.944C916.210526 112.693895 891.338105 80.842105 857.573053 80.842105zM862.935579 860.079158 512.161684 671.797895 161.495579 860.698947 161.495579 178.849684c0-24.144842 19.429053-43.708632 43.412211-43.708632l614.615579-0.619789c23.956211 0 43.412211 19.590737 43.412211 43.708632L862.935579 860.079158zM591.952842 332.611368 512 188.631579l-79.952842 143.979789L269.473684 363.600842l113.178947 119.996632L362.118737 646.736842 512 576.916211 661.908211 646.736842 641.347368 483.597474l113.178947-119.996632L591.952842 332.611368zM609.738105 575.299368l-97.441684-45.379368-97.414737 45.379368 13.338947-106.037895-73.566316-78.012632 105.687579-20.156632 51.954526-93.588211 51.954526 93.588211 105.687579 20.156632-73.566316 78.012632L609.738105 575.299368z" p-id="25254" fill="#1296db"></path></svg>