<?xml version="1.0" standalone="no"?><!DOCTYPE svg PUBLIC "-//W3C//DTD SVG 1.1//EN" "http://www.w3.org/Graphics/SVG/1.1/DTD/svg11.dtd"><svg t="1533294627655" class="icon" style="" viewBox="0 0 1030 1024" version="1.1" xmlns="http://www.w3.org/2000/svg" p-id="6203" xmlns:xlink="http://www.w3.org/1999/xlink" width="32.1875" height="32"><defs><style type="text/css"></style></defs><path d="M422.4 0c57.6 0 108.8 12.8 160 32s96 51.2 134.4 89.6c38.4 38.4 64 83.2 89.6 134.4 19.2 51.2 32 108.8 32 160s-6.4 96-25.6 140.8c-12.8 44.8-38.4 83.2-70.4 121.6l262.4 262.4c6.4 6.4 12.8 19.2 12.8 32s-6.4 25.6-12.8 32c-6.4 6.4-19.2 12.8-32 12.8s-25.6-6.4-32-12.8l-262.4-262.4c-38.4 32-76.8 51.2-121.6 70.4-44.8 12.8-89.6 25.6-140.8 25.6-57.6 0-108.8-12.8-160-32s-96-51.2-134.4-89.6c-38.4-38.4-64-83.2-89.6-134.4-19.2-51.2-32-108.8-32-160 0-57.6 12.8-108.8 32-160S83.2 166.4 121.6 128c38.4-38.4 83.2-64 134.4-89.6C313.6 12.8 371.2 0 422.4 0z m0 96c-44.8 0-83.2 6.4-128 25.6S217.6 160 192 192c-32 32-51.2 64-70.4 102.4-19.2 38.4-25.6 83.2-25.6 128s6.4 83.2 25.6 128c19.2 38.4 38.4 76.8 70.4 102.4 32 32 64 51.2 102.4 70.4 38.4 19.2 83.2 25.6 128 25.6s83.2-6.4 128-25.6c38.4-19.2 76.8-38.4 102.4-70.4 32-32 51.2-64 70.4-102.4 19.2-38.4 25.6-83.2 25.6-128s-6.4-83.2-25.6-128c-19.2-38.4-38.4-76.8-70.4-102.4-32-32-64-51.2-102.4-70.4-38.4-19.2-83.2-25.6-128-25.6z" fill="#FFFFFF" p-id="6204"></path></svg>