<?xml version="1.0" standalone="no"?><!DOCTYPE svg PUBLIC "-//W3C//DTD SVG 1.1//EN" "http://www.w3.org/Graphics/SVG/1.1/DTD/svg11.dtd"><svg t="1533294374754" class="icon" style="" viewBox="0 0 1449 1024" version="1.1" xmlns="http://www.w3.org/2000/svg" p-id="2209" xmlns:xlink="http://www.w3.org/1999/xlink" width="45.28125" height="32"><defs><style type="text/css"></style></defs><path d="M1111.845 56.703h-816.698c-28.841 0-52.222 23.376-52.222 52.222v816.698c0 28.841 23.376 52.222 52.222 52.222h816.698c28.841 0 52.222-23.376 52.222-52.222v-816.698c0-28.841-23.376-52.222-52.222-52.222zM400.231 619.521c-103.323-103.323-103.323-270.85 0-374.172s270.85-103.323 374.172 0c103.323 103.323 103.323 270.85 0 374.172-103.323 103.323-270.85 103.323-374.172 0zM1003.68 847.744l-1.052 1.052c-20.402 20.402-53.463 20.402-73.86 0l-134.575-134.575c-20.402-20.402-20.402-53.463 0-73.86l1.052-1.052c20.402-20.402 53.463-20.402 73.86 0l134.575 134.575c20.402 20.402 20.402 53.463 0 73.86z" p-id="2210" fill="#2c2c2c"></path><path d="M411.196 432.41c0 97.27 78.854 176.114 176.114 176.114s176.114-78.854 176.114-176.114c0-97.27-78.854-176.114-176.114-176.114-97.27 0-176.114 78.854-176.114 176.114z" p-id="2211" fill="#2c2c2c"></path></svg>