<?xml version="1.0" standalone="no"?><!DOCTYPE svg PUBLIC "-//W3C//DTD SVG 1.1//EN" "http://www.w3.org/Graphics/SVG/1.1/DTD/svg11.dtd"><svg t="1533263985549" class="icon" style="" viewBox="0 0 1024 1024" version="1.1" xmlns="http://www.w3.org/2000/svg" p-id="30279" xmlns:xlink="http://www.w3.org/1999/xlink" width="32" height="32"><defs><style type="text/css"></style></defs><path d="M0 0h1024v1024H0z" fill="#1fc101" p-id="30280"></path><path d="M771.919565 376.856276v327.29274c0 18.929514-15.389261 34.318775-34.318775 34.318775H286.39921c-18.929514 0-34.318775-15.389261-34.318775-34.318775V319.850984c0-18.929514 15.389261-34.318775 34.318775-34.318775h200.927397c10.042757 0 19.652014 3.901503 26.80477 10.909758l29.839271 29.116771c11.198758 10.909758 26.154519 17.051012 41.832781 17.051013H737.67304c18.929514-0.07225 34.246525 15.317011 34.246525 34.246525z" fill="#FFFFFF" p-id="30281"></path><path d="M630.959712 529.087138l-86.049813-59.967544c-3.034502-2.095252-7.152755 0.07225-7.080505 3.757002l0.36125 30.634023c0 2.528752-2.023001 4.551753-4.551753 4.551753H388.633035c-2.528752 0-4.551753 2.023001-4.551754 4.551753v43.133282c0 2.528752 2.023001 4.551753 4.551754 4.551753h145.728356c2.456502 0 4.479503 2.023001 4.551754 4.479504l0.36125 30.706272c0.07225 3.684753 4.262753 5.780004 7.225005 3.612503l84.677062-62.568546c2.384252-1.950751 2.312002-5.707754-0.21675-7.441755z" fill="#1fc101" p-id="30282"></path></svg>