<?xml version="1.0" standalone="no"?><!DOCTYPE svg PUBLIC "-//W3C//DTD SVG 1.1//EN" "http://www.w3.org/Graphics/SVG/1.1/DTD/svg11.dtd"><svg t="1533436647201" class="icon" style="" viewBox="0 0 1024 1024" version="1.1" xmlns="http://www.w3.org/2000/svg" p-id="3041" xmlns:xlink="http://www.w3.org/1999/xlink" width="32" height="32"><defs><style type="text/css"></style></defs><path d="M511.798 64.083c-246.728 0-447.42 200.692-447.42 447.42 0 246.687 200.692 447.422 447.42 447.422 246.687 0 447.421-200.735 447.421-447.422 0-246.728-200.734-447.42-447.421-447.42z m0 832.045c-212.1 0-384.624-172.566-384.624-384.625 0-212.1 172.525-384.625 384.624-384.625 212.06 0 384.625 172.526 384.625 384.625 0 212.059-172.567 384.625-384.625 384.625z m-193.62-443.495c-32.502 0-58.871 26.328-58.871 58.87 0 32.503 26.37 58.872 58.87 58.872 32.502 0 58.872-26.369 58.872-58.872 0-32.543-26.37-58.87-58.872-58.87z m193.62 0c-32.501 0-58.87 26.328-58.87 58.87 0 32.503 26.369 58.872 58.87 58.872 32.503 0 58.871-26.369 58.871-58.872 0-32.543-26.37-58.87-58.871-58.87z m193.621 0c-32.502 0-58.87 26.328-58.87 58.87 0 32.503 26.37 58.872 58.87 58.872 32.501 0 58.87-26.369 58.87-58.872 0.002-32.543-26.369-58.87-58.87-58.87z" fill="#FFFFFF" p-id="3042"></path></svg>