<?xml version="1.0" standalone="no"?><!DOCTYPE svg PUBLIC "-//W3C//DTD SVG 1.1//EN" "http://www.w3.org/Graphics/SVG/1.1/DTD/svg11.dtd"><svg t="1533282891502" class="icon" style="" viewBox="0 0 1024 1024" version="1.1" xmlns="http://www.w3.org/2000/svg" p-id="8617" xmlns:xlink="http://www.w3.org/1999/xlink" width="32" height="32"><defs><style type="text/css"></style></defs><path d="M512 2.78016C230.78912 2.78016 2.7904 230.77888 2.7904 511.99488c0 281.20576 227.99872 509.22496 509.2096 509.22496 281.23648 0 509.2096-228.0192 509.2096-509.22496C1021.2096 230.77888 793.23648 2.78016 512 2.78016zM234.24512 604.59008c-51.1232 0-92.58496-41.45152-92.58496-92.5952 0-51.13344 41.46176-92.58496 92.58496-92.58496 51.12832 0 92.58496 41.45152 92.58496 92.58496 0 51.14368-41.45664 92.5952-92.58496 92.5952z m277.75488 0c-51.12832 0-92.58496-41.45152-92.58496-92.5952 0-51.13344 41.45664-92.58496 92.58496-92.58496 51.12832 0 92.57984 41.45152 92.57984 92.58496 0 51.14368-41.45152 92.5952-92.57984 92.5952z m277.75488 0c-51.13344 0-92.58496-41.45152-92.58496-92.5952 0-51.13344 41.45152-92.58496 92.58496-92.58496 51.1232 0 92.57984 41.45152 92.57984 92.58496 0 51.14368-41.45664 92.5952-92.57984 92.5952z" p-id="8618" fill="#2c2c2c"></path></svg>