<?xml version="1.0" standalone="no"?><!DOCTYPE svg PUBLIC "-//W3C//DTD SVG 1.1//EN" "http://www.w3.org/Graphics/SVG/1.1/DTD/svg11.dtd"><svg t="1533482785842" class="icon" style="" viewBox="0 0 1365 1024" version="1.1" xmlns="http://www.w3.org/2000/svg" p-id="3347" xmlns:xlink="http://www.w3.org/1999/xlink" width="42.65625" height="32"><defs><style type="text/css"></style></defs><path d="M1251.564308 0h-853.333334c-39.253333 0-70.262154 19.902359-90.742153 50.070974L0 511.711179l307.462564 461.666462C327.942564 1003.52 362.679795 1024 401.933128 1024h849.657436A113.742769 113.742769 0 0 0 1365.333333 910.230974V113.769026A113.742769 113.742769 0 0 0 1251.564308 0zM512 597.333333a85.228308 85.228308 0 0 1-85.333333-85.333333 85.228308 85.228308 0 0 1 85.333333-85.333333 85.228308 85.228308 0 0 1 85.333333 85.333333 85.228308 85.228308 0 0 1-85.333333 85.333333z m284.435692 0a85.228308 85.228308 0 0 1-85.333333-85.333333 85.228308 85.228308 0 0 1 85.333333-85.333333 85.228308 85.228308 0 0 1 85.333334 85.333333 85.228308 85.228308 0 0 1-85.333334 85.333333z m284.461949 0a85.228308 85.228308 0 0 1-85.333333-85.333333 85.228308 85.228308 0 0 1 85.333333-85.333333 85.228308 85.228308 0 0 1 85.333333 85.333333 85.228308 85.228308 0 0 1-85.333333 85.333333z" p-id="3348" fill="#707070"></path></svg>