<?xml version="1.0" standalone="no"?><!DOCTYPE svg PUBLIC "-//W3C//DTD SVG 1.1//EN" "http://www.w3.org/Graphics/SVG/1.1/DTD/svg11.dtd"><svg t="1533263599482" class="icon" style="" viewBox="0 0 1024 1024" version="1.1" xmlns="http://www.w3.org/2000/svg" p-id="22127" xmlns:xlink="http://www.w3.org/1999/xlink" width="32" height="32"><defs><style type="text/css"></style></defs><path d="M989.866667 34.133333v955.733334H34.133333V34.133333h955.733334M1024 0H0v1024h1024V0z" fill="#d81e06" p-id="22128"></path><path d="M741.262222 861.582222a118.613333 118.613333 0 0 1-117.191111-100.693333h-224.426667a118.328889 118.328889 0 0 1-235.52-17.635556v-159.004444A176.924444 176.924444 0 0 1 341.333333 407.608889h341.333334a176.924444 176.924444 0 0 1 176.64 176.64v159.004444a118.613333 118.613333 0 0 1-118.044445 118.328889z m-85.333333-118.328889a85.333333 85.333333 0 0 0 168.391111 0v-159.004444a142.222222 142.222222 0 0 0-142.222222-142.222222H341.333333a142.222222 142.222222 0 0 0-142.222222 142.222222v159.004444a85.333333 85.333333 0 0 0 168.391111 0 17.066667 17.066667 0 0 1 16.782222-17.066666h251.448889a17.635556 17.635556 0 0 1 21.333334 16.782222z" fill="#d81e06" p-id="22129"></path><path d="M355.555556 689.777778a17.066667 17.066667 0 0 1-17.066667-17.066667v-142.222222a17.066667 17.066667 0 0 1 34.133333 0v142.222222a17.066667 17.066667 0 0 1-17.066666 17.066667z" fill="#d81e06" p-id="22130"></path><path d="M426.666667 618.097778h-142.222223a17.066667 17.066667 0 1 1 0-34.133334h142.222223a17.066667 17.066667 0 0 1 0 34.133334zM670.151111 674.986667a73.955556 73.955556 0 1 1 73.955556-73.955556 73.955556 73.955556 0 0 1-73.955556 73.955556z m0-113.777778a39.822222 39.822222 0 1 0 39.822222 39.822222 39.822222 39.822222 0 0 0-39.822222-39.822222zM520.817778 398.222222a17.066667 17.066667 0 0 1-17.066667-17.066666 82.488889 82.488889 0 0 0-82.488889-82.488889 116.622222 116.622222 0 0 1-116.906666-116.622223v-5.688888a17.066667 17.066667 0 1 1 34.133333 0v5.688888a82.488889 82.488889 0 0 0 82.488889 82.488889 116.622222 116.622222 0 0 1 116.906666 116.622223 17.066667 17.066667 0 0 1-17.066666 17.066666z" fill="#d81e06" p-id="22131"></path></svg>