<?xml version="1.0" standalone="no"?><!DOCTYPE svg PUBLIC "-//W3C//DTD SVG 1.1//EN" "http://www.w3.org/Graphics/SVG/1.1/DTD/svg11.dtd"><svg t="1533477664031" class="icon" style="" viewBox="0 0 1024 1024" version="1.1" xmlns="http://www.w3.org/2000/svg" p-id="2681" xmlns:xlink="http://www.w3.org/1999/xlink" width="32" height="32"><defs><style type="text/css"></style></defs><path d="M864.186 206.2h-352.05c0-26.879-9.332-49.725-28.003-68.541-18.669-18.813-41.339-28.218-68.007-28.218h-64.014c-26.669 0-49.337 9.404-68.008 28.218-18.669 18.816-28.001 41.662-28.001 68.541H160.09c-26.674 0-49.344 9.407-68.016 28.222-18.668 18.813-28 41.659-28 68.542v516.05c0 26.882 9.332 49.729 28 68.538 18.671 18.818 41.339 28.219 68.016 28.219h704.097c26.667 0 49.34-9.399 68.008-28.219 18.669-18.81 28.009-41.661 28.009-68.538v-516.05c0-26.883-9.34-49.729-28.009-68.542-18.67-18.815-41.338-28.222-68.009-28.222zM512.135 754.509c-52.679 0-97.847-18.989-135.509-56.962-37.654-37.974-56.499-83.488-56.517-136.563-0.025-53.063 18.816-98.587 56.517-136.56 37.705-37.97 82.873-56.958 135.509-56.958 52.64 0 97.805 18.988 135.503 56.958 37.708 37.973 56.547 83.496 56.525 136.56-0.02 53.073-18.857 98.589-56.525 136.563-37.652 37.972-82.823 56.962-135.503 56.962z m304.048-322.534c-13.339 0-24.68-4.71-34.024-14.124-9.344-9.422-14.019-20.849-14.019-34.29 0-13.44 4.675-24.867 14.019-34.284 9.346-9.417 20.687-14.129 34.024-14.129 13.333 0 24.67 4.712 34.019 14.129 9.351 9.415 14.021 20.844 14.021 34.284 0 13.441-4.67 24.868-14.021 34.29-9.349 9.414-20.691 14.124-34.019 14.124z" fill="#FFFFFF" p-id="2682"></path></svg>