<?xml version="1.0" standalone="no"?><!DOCTYPE svg PUBLIC "-//W3C//DTD SVG 1.1//EN" "http://www.w3.org/Graphics/SVG/1.1/DTD/svg11.dtd"><svg t="1533263933722" class="icon" style="" viewBox="0 0 1024 1024" version="1.1" xmlns="http://www.w3.org/2000/svg" p-id="29859" xmlns:xlink="http://www.w3.org/1999/xlink" width="32" height="32"><defs><style type="text/css"></style></defs><path d="M533.2 65.3c-60.8-8-128.4 11.2-182.8 31.9-130.2 49.5-232.6 162.5-269.9 296.7-14.3 51.5-21.8 106.4-15 159.7 8.1 64.1 50 161.8 132.3 125.7 57.4-25.2 46.8-84 46.7-135.2-0.2-88.2 0.4-181.3 38.8-262.5 23.9-50.6 60.1-95.3 103.9-130 21.7-17.2 45.7-32.9 71.1-44 30.1-13.1 63.1-19.9 94.3-29.8 4.6-1.5 8.9-3.9 13.6-5.2-10.6-3.4-21.7-5.9-33-7.3z" fill="#FDD905" p-id="29860"></path><path d="M949.7 413.6c-11.6-50.3-31-97.9-59-141.4-27.9-43.4-63.4-82-104.6-113.2-41-31.1-87.8-54.7-137.6-68-23.4-6.2-48.1-9.9-71.5-1.9-43.8 14.9-73.7 69.5-50.2 112.7 17.3 31.8 45.1 42.4 76 58.5 52.5 27.4 105.3 52.3 151.5 89.8 20.5 16.6 39.7 35 56.9 55.2 42 49.3 69.4 110.5 79.7 174.4 11.4 70.6-2.1 135.1-24.9 201.9 19.3-15.4 31.7-37 43-58.7 50.1-93.8 64.7-205.8 40.7-309.3z" fill="#25A636" p-id="29861"></path><path d="M831.9 709.5c-1.6-1.8-3.2-3.5-4.9-5.2-18.6-18.3-45.3-33.6-71.4-24.5-36.4 12.7-63.3 37.2-94.4 58.6-34.3 23.6-70.4 45.1-109 60.9-60.2 24.5-125.7 34.7-190.5 29.4-23.8-1.9-47.2-5.9-70-13-40.6-12.7-79-33-112.9-58.6-11.3-8.5-21.3-17.5-31-27.6-14.2-14.6-28.5-29.4-44.9-41.6 8.5 30.5 25.4 58.1 44.1 83.3 102.2 150.5 303.2 222.3 478.2 174.6 48.8-13.3 95.8-33.3 137.5-62.2 21-14.6 40.2-31.3 57.6-50 14.4-15.5 31.3-34.2 34-56.2 2.9-24.4-6.2-49.5-22.4-67.9z" fill="#E40212" p-id="29862"></path><path d="M696.1 519.2c-7.5-17.6-20-32.5-29.1-42.1 3.4-5.4 5.3-11 5.3-16.9 0-12.2-7.9-23.6-21.3-33.4-6.8-63.2-62.7-112.5-130.6-112.5-67.9 0-123.8 49.3-130.7 112.5-13.5 9.8-21.3 21.2-21.3 33.4 0 5.8 1.9 11.5 5.3 16.9-9.1 9.6-21.6 24.6-29.1 42.1-12.1 28.5-14.3 53.6-7.8 70.1 5.9 14.8 16.2 13.5 24.7-0.2 2.2-3.5 5.5-8.4 9.2-13.7 6.3 17.8 16.8 34.1 30.7 47.9-8.5 2.4-15.8 5.2-20 8.4-15.8 12.3-16.5 26.5-3.1 37.4 17.3 14.1 87.3 21 127.9 0.3 4.7 0.4 9.4 0.6 14.1 0.6 5.1 0 10.1-0.2 15.1-0.6 40.6 20.8 110.7 13.9 128-0.2 13.3-10.9 12.7-25.2-3.1-37.4-4.3-3.3-12-6.2-20.9-8.6 13.8-13.8 24.2-30 30.4-47.7 3.7 5.3 7 10.2 9.2 13.7 8.5 13.7 18.8 15 24.8 0.2 6.6-16.6 4.3-41.8-7.7-70.2z" fill="#0096D3" p-id="29863"></path></svg>