<?xml version="1.0" standalone="no"?><!DOCTYPE svg PUBLIC "-//W3C//DTD SVG 1.1//EN" "http://www.w3.org/Graphics/SVG/1.1/DTD/svg11.dtd"><svg t="1533263815807" class="icon" style="" viewBox="0 0 1024 1024" version="1.1" xmlns="http://www.w3.org/2000/svg" p-id="28160" xmlns:xlink="http://www.w3.org/1999/xlink" width="32" height="32"><defs><style type="text/css"></style></defs><path d="M903.168 433.28 801.92 433.28c-5.952-20.032-13.952-39.168-23.68-57.28l71.552-71.616c15.744-15.744 15.744-41.344 0-57.088l-64.704-64.704c-15.744-15.744-41.28-15.744-57.024 0l-71.616 71.616C638.464 244.48 619.264 236.544 599.232 230.592L599.232 129.28c0-22.272-18.048-40.32-40.384-40.32L467.456 88.96c-22.272 0-40.384 18.048-40.384 40.32l0 101.312C407.04 236.544 387.904 244.48 369.856 254.272L298.24 182.656c-15.744-15.744-41.344-15.744-57.088 0L176.448 247.36c-15.744 15.744-15.744 41.344 0 57.088l71.616 71.616C238.336 394.048 230.336 413.184 224.384 433.28L123.072 433.28c-22.272 0-40.32 18.048-40.32 40.384l0 91.456c0 22.336 18.048 40.384 40.32 40.384l101.312 0c5.952 20.032 13.952 39.168 23.744 57.28l-71.616 71.616c-15.744 15.744-15.744 41.28 0 57.024l64.704 64.704c15.744 15.744 41.344 15.744 57.088 0l71.616-71.552c18.048 9.728 37.248 17.728 57.28 23.68l0 101.248c0 22.336 18.112 40.384 40.384 40.384l91.456 0c22.336 0 40.384-18.048 40.384-40.384l0-101.248c20.032-5.952 39.168-13.952 57.28-23.68l71.616 71.552c15.744 15.744 41.344 15.744 57.024 0l64.704-64.704c15.744-15.744 15.744-41.28 0-57.024l-71.552-71.616c9.728-18.048 17.728-37.248 23.68-57.28l101.248 0c22.336 0 40.384-18.048 40.384-40.384L943.808 473.6C943.552 451.328 925.504 433.28 903.168 433.28L903.168 433.28zM513.152 691.52c-95.04 0-172.096-77.056-172.096-172.16 0-95.04 77.056-172.096 172.096-172.096 95.104 0 172.16 77.056 172.16 172.096C685.312 614.464 608.256 691.52 513.152 691.52L513.152 691.52z" p-id="28161" fill="#1296db"></path></svg>