<?xml version="1.0" standalone="no"?><!DOCTYPE svg PUBLIC "-//W3C//DTD SVG 1.1//EN" "http://www.w3.org/Graphics/SVG/1.1/DTD/svg11.dtd"><svg t="1533263564955" class="icon" style="" viewBox="0 0 1024 1024" version="1.1" xmlns="http://www.w3.org/2000/svg" p-id="19556" xmlns:xlink="http://www.w3.org/1999/xlink" width="32" height="32"><defs><style type="text/css"></style></defs><path d="M864 64h-704c-49.6 0-91.2 40-91.2 91.2v704c0 49.6 40 91.2 91.2 91.2h704c49.6 0 91.2-40 91.2-91.2v-704c0-51.2-41.6-91.2-91.2-91.2z" fill="#FA4C4C" p-id="19557"></path><path d="M784 315.2l-1.6 1.6v1.6c-19.2 132.8-134.4 233.6-268.8 233.6s-249.6-100.8-268.8-233.6v-1.6l-1.6-1.6c-12.8-8-20.8-20.8-20.8-35.2 0-24 19.2-43.2 43.2-43.2 24 0 43.2 19.2 43.2 43.2 0 12.8-6.4 24-16 32l-1.6 1.6v3.2c17.6 112 112 192 225.6 192s208-81.6 225.6-192v-3.2l-1.6-1.6c-9.6-8-16-19.2-16-32 0-24 19.2-43.2 43.2-43.2 24 0 43.2 19.2 43.2 43.2-6.4 14.4-14.4 27.2-27.2 35.2z" fill="#FFFFFF" p-id="19558"></path></svg>